<svg xmlns="http://www.w3.org/2000/svg" viewBox="0 0 360.33 85.5"><defs><style>.cls-1{fill:#232323;}.cls-2{fill:#c6151d;}.cls-3{fill:#5a5758;}.cls-4{fill:none;stroke:#c6151d;stroke-miterlimit:10;stroke-width:1.5px;}</style></defs><g id="Layer_2" data-name="Layer 2"><g id="Layer_1-2" data-name="Layer 1"><path class="cls-1" d="M104,22.69l4.9,4V38h-4.67V33l-5.48,2v3H94V26.68l4.9-4Zm-5.25,9.43,5.48-2V27.75l-2.56-2.1h-.36l-2.56,2.09Z"/><path class="cls-1" d="M125.19,35.06V38H110.48V33.29l7-4.91,3-2.12V25.6h-10V22.7h14.71v4.66l-7,4.92-3,2.11v.67Z"/><path class="cls-1" d="M141.84,38h-4.67V33.56l-5.46-2V38H127V23.25l-.79-.55h5.46v3.64h0l10.12-3.63v2.89L132.44,29l9.4,3.38Z"/><path class="cls-1" d="M153.38,22.69l4.89,4V38H153.6V33l-5.47,2v3h-4.67V26.68l4.89-4Zm-5.25,9.43,5.47-2V27.75L151,25.65h-.35l-2.56,2.09Z"/><path class="cls-1" d="M169.73,22.71l4.15,2.57v4.85l-2.61.93,2.61,1.63V38h-4.73V33.9L167,32.58l-2.23.81V38h-4.67V23.26l-.8-.55Zm-4.94,2.94V30.5l4.36-1.56V26.51l-1.38-.86Z"/><path class="cls-1" d="M188.08,38l-4.35-2.71,3.34-2.07L190,35h3.13l1.42-.9V23.25l-.79-.55h5.48V35.4L195.13,38Z"/><path class="cls-1" d="M210.82,22.69l4.89,4V38H211V33l-5.48,2v3H200.9V26.68l4.89-4Zm-5.26,9.43,5.48-2V27.75l-2.56-2.1h-.36l-2.56,2.09Z"/><path class="cls-1" d="M233.12,22.66V26.3l-5.43,5.64v6H223v-6l-5.45-5.64V23.21l-.81-.55h5.55v2.83l3,3.14,3-3.14V23.21l-.79-.55Z"/><path class="cls-1" d="M244.66,22.69l4.89,4V38h-4.67V33l-5.47,2v3h-4.67V26.68l4.89-4Zm-5.25,9.43,5.47-2V27.75l-2.56-2.1H242l-2.56,2.09Z"/><path class="cls-1" d="M270.6,34.86l-6.28-7V38h-4.67V23.25l-.81-.55h5.48l6.28,7,6.31-7h5.46l-.79.55V38h-4.67V27.84Z"/><path class="cls-1" d="M293.26,22.69l4.9,4V38h-4.67V33L288,35v3h-4.67V26.68l4.9-4ZM288,32.12l5.48-2V27.75l-2.56-2.1h-.36L288,27.74Z"/><path class="cls-1" d="M304.69,22.7,310.28,29V22.7H315V38h-4.67v-3.9l-5.59-6.24V38H300V23.25l-.81-.55Z"/><path class="cls-1" d="M327.54,38,316.8,38V23.25l-.8-.55h.8l10.74,0,4.15,2.58V35.38Zm-2-12.29h-4.12V35h4.12l1.44-.9V26.56Z"/><path class="cls-1" d="M332.74,22.7h5.46V38h-4.66V23.25Z"/><path class="cls-1" d="M349.66,22.71l4.15,2.57v4.85l-2.61.93,2.61,1.63V38h-4.73V33.9L347,32.58l-2.24.81V38h-4.67V23.26l-.79-.55Zm-4.94,2.94V30.5l4.36-1.56V26.51l-1.38-.86Z"/><path class="cls-1" d="M354.87,22.7h5.46V38h-4.67V23.25Z"/><path class="cls-2" d="M97.38,58.49,94.29,46.78h.85l1.7,6.61c.39,1.51.75,2.91,1,4h0a38.86,38.86,0,0,1,1.07-4l1.92-6.6h.8l1.74,6.55c.37,1.42.76,2.88.94,4.08h0c.27-1.27.64-2.54,1.07-4l1.92-6.6h.85L104.7,58.49h-.79l-1.76-6.74a38.38,38.38,0,0,1-.91-4h0a33,33,0,0,1-1,4l-2,6.75Z"/><path class="cls-2" d="M109.37,54.24c0,2.67,1.45,3.72,3.17,3.72a4.83,4.83,0,0,0,2.32-.47l.21.65a5.48,5.48,0,0,1-2.63.54c-2.4,0-3.89-1.75-3.89-4.19,0-2.79,1.6-4.53,3.75-4.53,2.74,0,3.25,2.57,3.25,3.77a3.56,3.56,0,0,1,0,.51Zm5.32-.66c0-1.16-.47-2.93-2.5-2.93-1.83,0-2.62,1.65-2.78,2.93Z"/><path class="cls-2" d="M117.67,46.15h.83V58.49h-.83Z"/><path class="cls-2" d="M128,46.15V56.56c0,.61,0,1.35.07,1.93h-.74l-.06-1.58h0a3.15,3.15,0,0,1-3,1.78c-2.06,0-3.59-1.73-3.59-4.21,0-2.79,1.69-4.52,3.75-4.52a3,3,0,0,1,2.72,1.47h0V46.15Zm-.82,7.3a3.92,3.92,0,0,0-.08-.76,2.69,2.69,0,0,0-2.64-2c-1.81,0-3,1.58-3,3.74,0,1.88.94,3.61,2.92,3.61a2.78,2.78,0,0,0,2.67-2.19,2.45,2.45,0,0,0,.09-.69Z"/><path class="cls-2" d="M130.94,54.24c0,2.67,1.45,3.72,3.17,3.72a4.89,4.89,0,0,0,2.32-.47l.21.65a5.51,5.51,0,0,1-2.63.54c-2.4,0-3.89-1.75-3.89-4.19,0-2.79,1.59-4.53,3.75-4.53,2.73,0,3.25,2.57,3.25,3.77a2.39,2.39,0,0,1,0,.51Zm5.31-.66c0-1.16-.46-2.93-2.49-2.93A3,3,0,0,0,131,53.58Z"/><path class="cls-2" d="M139.23,52.65c0-.83,0-1.69-.07-2.5h.77l0,1.7h0A2.59,2.59,0,0,1,142.38,50a1.27,1.27,0,0,1,.34,0v.79a1.67,1.67,0,0,0-.4,0c-1.14,0-2,1-2.19,2.34a4.94,4.94,0,0,0-.07.79v4.6h-.83Z"/><path class="cls-2" d="M152.72,58.49l-.12-1.19h0a3.15,3.15,0,0,1-2.66,1.39,2.27,2.27,0,0,1-2.45-2.3c0-1.92,1.69-3.08,5.08-3v-.22c0-.83-.16-2.47-2.13-2.46a3.69,3.69,0,0,0-2.09.62l-.27-.6a4.57,4.57,0,0,1,2.45-.72c2.41,0,2.87,1.81,2.87,3.3v3.25a12.92,12.92,0,0,0,.12,2ZM152.53,54c-1.81-.06-4.21.22-4.21,2.22A1.59,1.59,0,0,0,150,58a2.52,2.52,0,0,0,2.47-1.67,1.62,1.62,0,0,0,.08-.5Z"/><path class="cls-2" d="M156.06,52.15c0-.77,0-1.34-.07-2h.77l.06,1.51h0a3.13,3.13,0,0,1,2.87-1.7c.79,0,2.91.41,2.91,3.53v5h-.83V53.57c0-1.52-.58-2.9-2.31-2.9a2.68,2.68,0,0,0-2.5,1.92,2.74,2.74,0,0,0-.11.74v5.16h-.83Z"/><path class="cls-2" d="M172,46.15V56.56c0,.61,0,1.35.07,1.93h-.74l-.06-1.58h0a3.15,3.15,0,0,1-3,1.78c-2.06,0-3.6-1.73-3.6-4.21,0-2.79,1.7-4.52,3.76-4.52a3,3,0,0,1,2.72,1.47h0V46.15Zm-.82,7.3a3.92,3.92,0,0,0-.08-.76,2.69,2.69,0,0,0-2.64-2c-1.81,0-3,1.58-3,3.74,0,1.88.94,3.61,2.92,3.61a2.78,2.78,0,0,0,2.67-2.19,2.45,2.45,0,0,0,.09-.69Z"/><path class="cls-2" d="M186.59,58.09a7.48,7.48,0,0,1-3.16.59c-2.84,0-5.55-1.82-5.55-6,0-3.48,2.25-6.11,5.94-6.11a6.15,6.15,0,0,1,2.72.51l-.27.7a5.57,5.57,0,0,0-2.44-.51c-3.16,0-5.09,2.06-5.09,5.42,0,3.19,1.82,5.24,4.95,5.24a6.12,6.12,0,0,0,2.65-.54Z"/><path class="cls-2" d="M195.56,54.24c0,3.12-2.13,4.45-4,4.45-2.16,0-3.82-1.68-3.82-4.3,0-2.86,1.87-4.43,3.94-4.43C194,50,195.56,51.69,195.56,54.24Zm-7,.11c0,2.08,1.33,3.65,3,3.65s3.1-1.58,3.1-3.72c0-1.52-.86-3.63-3.06-3.63S188.58,52.55,188.58,54.35Z"/><path class="cls-2" d="M197.68,52.15c0-.77,0-1.34-.07-2h.77l.06,1.51h0a3.13,3.13,0,0,1,2.87-1.7c.8,0,2.91.41,2.91,3.53v5h-.82V53.57c0-1.52-.59-2.9-2.32-2.9a2.68,2.68,0,0,0-2.5,1.92,2.74,2.74,0,0,0-.11.74v5.16h-.83Z"/><path class="cls-2" d="M206.65,57.4a3.64,3.64,0,0,0,1.88.58c1.31,0,1.94-.72,1.94-1.59s-.55-1.41-1.76-1.88c-1.36-.53-2.11-1.28-2.11-2.29A2.33,2.33,0,0,1,209.17,50a3.33,3.33,0,0,1,1.85.53l-.33.67a2.83,2.83,0,0,0-1.65-.5,1.46,1.46,0,0,0-1.63,1.44c0,.88.59,1.25,1.73,1.71,1.35.54,2.15,1.21,2.15,2.47,0,1.43-1.11,2.4-2.82,2.4a4.08,4.08,0,0,1-2.12-.58Z"/><path class="cls-2" d="M214.63,47.74v2.41H217v.67h-2.37v5.42c0,1.06.33,1.73,1.22,1.73a3,3,0,0,0,1-.13l.1.64a3,3,0,0,1-1.15.2,1.78,1.78,0,0,1-1.44-.59,3,3,0,0,1-.51-2V50.82h-1.41v-.67h1.41V48Z"/><path class="cls-2" d="M218.84,52.65c0-.83,0-1.69-.06-2.5h.76l0,1.7h.05A2.59,2.59,0,0,1,222,50a1.22,1.22,0,0,1,.34,0v.79a1.67,1.67,0,0,0-.4,0c-1.14,0-2,1-2.19,2.34a4.94,4.94,0,0,0-.07.79v4.6h-.83Z"/><path class="cls-2" d="M230.38,56.46c0,.74,0,1.4.07,2h-.77L229.62,57h0a3.23,3.23,0,0,1-2.86,1.68c-1.06,0-2.84-.53-2.84-3.68V50.15h.82v4.69c0,1.82.56,3.12,2.22,3.12a2.73,2.73,0,0,0,2.46-1.69,2.85,2.85,0,0,0,.16-.92v-5.2h.83Z"/><path class="cls-2" d="M238.94,58.13a5.37,5.37,0,0,1-2.44.55,3.93,3.93,0,0,1-4-4.26A4.19,4.19,0,0,1,236.8,50a4.3,4.3,0,0,1,2.19.52l-.3.68a4,4,0,0,0-2-.48c-2.23,0-3.38,1.71-3.38,3.67a3.29,3.29,0,0,0,3.3,3.61,4.69,4.69,0,0,0,2.08-.48Z"/><path class="cls-2" d="M242.28,47.74v2.41h2.37v.67h-2.37v5.42c0,1.06.33,1.73,1.22,1.73a3,3,0,0,0,.95-.13l.1.64a3,3,0,0,1-1.15.2,1.77,1.77,0,0,1-1.44-.59,3,3,0,0,1-.51-2V50.82H240v-.67h1.41V48Z"/><path class="cls-2" d="M247.58,47.77a.67.67,0,1,1-1.34,0,.7.7,0,0,1,.68-.72A.67.67,0,0,1,247.58,47.77ZM246.5,58.49V50.15h.82v8.34Z"/><path class="cls-2" d="M257.26,54.24c0,3.12-2.14,4.45-4,4.45-2.16,0-3.82-1.68-3.82-4.3,0-2.86,1.87-4.43,3.94-4.43C255.69,50,257.26,51.69,257.26,54.24Zm-7,.11c0,2.08,1.33,3.65,3,3.65s3.1-1.58,3.1-3.72c0-1.52-.86-3.63-3.06-3.63S250.27,52.55,250.27,54.35Z"/><path class="cls-2" d="M259.38,52.15c0-.77,0-1.34-.07-2h.77l.06,1.51h0A3.14,3.14,0,0,1,263,50c.8,0,2.91.41,2.91,3.53v5h-.82V53.57c0-1.52-.59-2.9-2.31-2.9a2.69,2.69,0,0,0-2.51,1.92,2.74,2.74,0,0,0-.11.74v5.16h-.82Z"/><polygon class="cls-3" points="74.07 61.53 65.06 61.53 53.49 45.09 38.23 23.4 42.8 16.88 58.78 39.7 74.07 61.53"/><path class="cls-2" d="M74.07,61.53h-9L53.49,45.1a19.11,19.11,0,0,0,5.29-5.4Z"/><path d="M74.43,61.72H65L38,23.4l4.8-6.84Zm-9.27-.37h8.55L42.8,17.2l-4.35,6.2L53.65,45Z"/><polygon class="cls-3" points="63.53 61.53 53.24 61.53 48.13 54.26 43.84 48.16 38.25 40.23 37.59 39.29 36.9 40.27 32.43 46.63 29.79 50.39 27.04 54.29 21.94 61.53 11.52 61.53 11.52 61.53 16.59 54.3 27.18 39.17 31.64 32.8 32.33 31.82 37.47 24.49 52.43 45.75 63.53 61.53"/><path class="cls-2" d="M27,54.29l-5.1,7.24H11.52A51.66,51.66,0,0,1,29.79,50.39Z"/><path class="cls-2" d="M52.43,45.75l11.1,15.78H53.24l-5.11-7.27-4.29-6.1A19.29,19.29,0,0,0,52.43,45.75Z"/><path d="M63.89,61.72H53.15L37.59,39.62,22,61.72h-11l.31-.31L27,39.06l5.15-7.35,5.28-7.54Zm-10.55-.37h9.84L37.47,24.81l-5.67,8.1-4.46,6.36L11.88,61.35h10L37.59,39l.81,1.15Z"/><polygon class="cls-3" points="51.86 61.53 23.26 61.53 28.35 54.29 28.36 54.29 32.27 54.28 37.82 54.28 34.2 49.13 33.09 47.56 37.56 41.21 42.48 48.2 46.75 54.27 46.75 54.27 51.86 61.53"/><path class="cls-2" d="M46.75,54.26l5.11,7.27H23.26l5.09-7.24h9.47L34.2,49.13a37.81,37.81,0,0,1,8.24-.93h0l4.27,6.06Z"/><path d="M52.22,61.72H22.9l5.36-7.62h9.2l-4.6-6.53,4.7-6.68Zm-28.61-.37h27.9L37.56,41.53l-4.24,6,4.86,6.9H28.45Z"/><circle class="cls-4" cx="42.75" cy="42.75" r="42"/></g></g></svg>